<!DOCTYPE svg PUBLIC "-//W3C//DTD SVG 1.1//EN" "http://www.w3.org/Graphics/SVG/1.1/DTD/svg11.dtd">

<!-- Uploaded to: SVG Repo, www.svgrepo.com, Transformed by: SVG Repo Mixer Tools -->
<svg version="1.1" id="_x32_" xmlns="http://www.w3.org/2000/svg" xmlns:xlink="http://www.w3.org/1999/xlink" viewBox="0 0 512 512" xml:space="preserve" width="20px" height="20px" fill="#000000">

<g id="SVGRepo_bgCarrier" stroke-width="0"/>

<g id="SVGRepo_tracerCarrier" stroke-linecap="round" stroke-linejoin="round"/>

<g id="SVGRepo_iconCarrier"> <style type="text/css"> .st0{fill:#faaf3f;} </style> <g> <path class="st0" d="M378.405,0H133.594C86.229,0,47.703,38.526,47.703,85.891v340.217c0,47.358,38.526,85.892,85.892,85.892 h170.12h13.164l9.319-9.311L454.986,373.9l9.311-9.318v-13.18V85.891C464.297,38.526,425.771,0,378.405,0z M432.495,351.402h-83.71 c-24.898,0-45.072,20.189-45.072,45.078v83.718h-170.12c-29.868,0-54.09-24.215-54.09-54.09V85.891 c0-29.875,24.223-54.09,54.09-54.09h244.811c29.883,0,54.09,24.215,54.09,54.09V351.402z"/> <rect x="133.677" y="126.915" class="st0" width="30.684" height="29.282"/> <rect x="133.677" y="198.195" class="st0" width="30.684" height="29.276"/> <rect x="133.677" y="269.476" class="st0" width="30.684" height="29.276"/> <rect x="133.677" y="340.756" class="st0" width="30.684" height="29.275"/> <rect x="197.461" y="126.915" class="st0" width="180.87" height="29.282"/> <rect x="197.461" y="198.195" class="st0" width="180.87" height="29.276"/> <rect x="197.461" y="269.476" class="st0" width="180.87" height="29.276"/> <rect x="197.461" y="340.756" class="st0" width="74.339" height="29.275"/> </g> </g>

</svg>